<svg version="1.1" id="Layer_1" xmlns="http://www.w3.org/2000/svg" xmlns:xlink="http://www.w3.org/1999/xlink" x="0px" y="0px"
	 width="100%" viewBox="0 0 512 512" enable-background="new 0 0 512 512" xml:space="preserve">
<path fill="#C65A72" opacity="1.000000" stroke="none" 
	d="
M1.000002,476.000000 
	C1.000000,330.309265 1.000000,184.618515 1.284223,38.799637 
	C2.009529,38.196812 2.687521,37.794296 2.857312,37.236958 
	C8.136221,19.908918 19.531456,8.648733 36.617008,2.930016 
	C37.225201,2.726448 37.545517,1.662797 38.000000,1.000000 
	C183.690750,1.000000 329.381500,1.000000 475.200378,1.284226 
	C475.803009,2.009511 476.205048,2.685281 476.762634,2.857544 
	C494.034515,8.193556 505.276428,19.607998 511.069580,36.617626 
	C511.277069,37.226906 512.337219,37.545788 513.000000,38.000004 
	C513.000000,183.690750 513.000000,329.381500 512.715759,475.200348 
	C511.990417,475.803162 511.312469,476.205688 511.142670,476.763031 
	C505.863708,494.091003 494.468719,505.351379 477.382965,511.069977 
	C476.774811,511.273529 476.454468,512.337158 476.000000,513.000000 
	C330.309265,513.000000 184.618515,513.000000 38.799637,512.715759 
	C38.196812,511.990448 37.794289,511.312469 37.236942,511.142700 
	C19.908838,505.863861 8.648733,494.468567 2.929986,477.383057 
	C2.726399,476.774872 1.662788,476.454498 1.000002,476.000000 
M460.185516,170.382446 
	C454.754272,158.461655 445.834564,150.123718 433.908173,144.924896 
	C423.984192,140.598953 413.521149,138.852203 402.761383,138.818466 
	C362.616974,138.692642 322.472443,138.618591 282.327942,138.527542 
	C278.382690,138.518585 274.437378,138.526337 270.241943,138.526337 
	C270.241943,144.127213 270.241943,148.869995 270.241943,154.492203 
	C276.604919,154.492203 282.713104,154.472885 288.821045,154.497452 
	C295.365021,154.523758 295.382843,154.541779 295.383301,161.021500 
	C295.387878,225.321579 295.388824,289.621643 295.372742,353.921722 
	C295.372284,355.843109 295.174866,357.764404 295.031891,360.366089 
	C286.450134,360.366089 278.376160,360.366089 270.399963,360.366089 
	C270.399963,365.988129 270.399963,370.881042 270.399963,375.636108 
	C305.727905,375.636108 340.625031,375.636108 375.672668,375.636108 
	C375.672668,370.507202 375.672668,365.748322 375.672668,360.215576 
	C365.036865,360.215576 354.641785,360.215576 343.649933,360.215576 
	C343.649933,357.495850 343.649963,355.545471 343.649933,353.595093 
	C343.649841,328.774597 343.649750,303.954102 343.649689,279.133606 
	C343.649658,267.406982 343.652466,267.570770 355.509125,267.370056 
	C375.311310,267.034882 395.261810,267.833923 414.871094,265.651154 
	C439.483398,262.911407 456.798279,249.074615 463.432678,224.469376 
	C468.268036,206.536377 467.610535,188.530106 460.185516,170.382446 
M73.492424,237.499756 
	C73.492424,278.218903 73.492424,318.938049 73.492424,360.352173 
	C64.501373,360.352173 56.421593,360.352173 48.409214,360.352173 
	C48.409214,365.957916 48.409214,370.852448 48.409214,375.661438 
	C83.723618,375.661438 118.626099,375.661438 153.548553,375.661438 
	C153.548553,370.444885 153.548553,365.575562 153.548553,360.107544 
	C142.878281,360.107544 132.619522,360.107544 122.480705,360.107544 
	C122.123726,359.078522 121.829826,358.625977 121.829102,358.172943 
	C121.782448,329.021301 121.790215,299.869537 121.696404,270.718079 
	C121.684502,267.019714 124.064102,267.393616 126.400749,267.388916 
	C140.060699,267.361481 153.723114,267.486969 167.379715,267.260193 
	C175.857819,267.119415 184.395065,266.981506 192.787704,265.914032 
	C218.910126,262.591461 237.537415,245.753601 242.447006,220.258011 
	C244.186996,211.222107 244.347137,201.669464 243.779236,192.441925 
	C242.148392,165.943268 226.764420,147.532516 201.470367,141.467255 
	C194.414322,139.775269 186.990036,138.965744 179.725235,138.906281 
	C140.081024,138.581757 100.433891,138.616791 60.787762,138.530731 
	C56.681282,138.521820 52.574772,138.529541 48.287338,138.529541 
	C48.287338,144.181335 48.287338,148.923004 48.287338,154.490829 
	C54.847523,154.490829 61.146973,154.770355 67.408005,154.400162 
	C72.200836,154.116791 73.640106,155.694153 73.596848,160.537537 
	C73.370735,185.856552 73.492157,211.178680 73.492424,237.499756 
z"/>
<path fill="#000000" opacity="1.000000" stroke="none" 
	d="
M513.000000,37.531345 
	C512.337219,37.545788 511.277069,37.226906 511.069580,36.617626 
	C505.276428,19.607998 494.034515,8.193556 476.762634,2.857544 
	C476.205048,2.685281 475.803009,2.009511 475.664246,1.284226 
	C488.259949,1.000000 500.519897,1.000000 513.000000,1.000000 
	C513.000000,13.020000 513.000000,25.041342 513.000000,37.531345 
z"/>
<path fill="#000000" opacity="1.000000" stroke="none" 
	d="
M37.531342,1.000000 
	C37.545517,1.662797 37.225201,2.726448 36.617008,2.930016 
	C19.531456,8.648733 8.136221,19.908918 2.857312,37.236958 
	C2.687521,37.794296 2.009529,38.196812 1.284223,38.335751 
	C1.000000,25.740049 1.000000,13.480098 1.000000,1.000000 
	C13.020000,1.000000 25.041342,1.000000 37.531342,1.000000 
z"/>
<path fill="#000000" opacity="1.000000" stroke="none" 
	d="
M1.000002,476.468658 
	C1.662788,476.454498 2.726399,476.774872 2.929986,477.383057 
	C8.648733,494.468567 19.908838,505.863861 37.236942,511.142700 
	C37.794289,511.312469 38.196812,511.990448 38.335754,512.715759 
	C25.740049,513.000000 13.480098,513.000000 1.000000,513.000000 
	C1.000000,500.980011 1.000000,488.958649 1.000002,476.468658 
z"/>
<path fill="#000000" opacity="1.000000" stroke="none" 
	d="
M476.468628,513.000000 
	C476.454468,512.337158 476.774811,511.273529 477.382965,511.069977 
	C494.468719,505.351379 505.863708,494.091003 511.142670,476.763031 
	C511.312469,476.205688 511.990417,475.803162 512.715759,475.664246 
	C513.000000,488.259949 513.000000,500.519897 513.000000,513.000000 
	C500.980011,513.000000 488.958649,513.000000 476.468628,513.000000 
z"/>
<path fill="#F6F3F1" opacity="1.000000" stroke="none" 
	d="
M460.356934,170.721191 
	C467.610535,188.530106 468.268036,206.536377 463.432678,224.469376 
	C456.798279,249.074615 439.483398,262.911407 414.871094,265.651154 
	C395.261810,267.833923 375.311310,267.034882 355.509125,267.370056 
	C343.652466,267.570770 343.649658,267.406982 343.649689,279.133606 
	C343.649750,303.954102 343.649841,328.774597 343.649933,353.595093 
	C343.649963,355.545471 343.649933,357.495850 343.649933,360.215576 
	C354.641785,360.215576 365.036865,360.215576 375.672668,360.215576 
	C375.672668,365.748322 375.672668,370.507202 375.672668,375.636108 
	C340.625031,375.636108 305.727905,375.636108 270.399963,375.636108 
	C270.399963,370.881042 270.399963,365.988129 270.399963,360.366089 
	C278.376160,360.366089 286.450134,360.366089 295.031891,360.366089 
	C295.174866,357.764404 295.372284,355.843109 295.372742,353.921722 
	C295.388824,289.621643 295.387878,225.321579 295.383301,161.021500 
	C295.382843,154.541779 295.365021,154.523758 288.821045,154.497452 
	C282.713104,154.472885 276.604919,154.492203 270.241943,154.492203 
	C270.241943,148.869995 270.241943,144.127213 270.241943,138.526337 
	C274.437378,138.526337 278.382690,138.518585 282.327942,138.527542 
	C322.472443,138.618591 362.616974,138.692642 402.761383,138.818466 
	C413.521149,138.852203 423.984192,140.598953 433.908173,144.924896 
	C445.834564,150.123718 454.754272,158.461655 460.356934,170.721191 
M416.050659,193.647430 
	C415.289703,171.357056 402.033020,156.396484 381.822723,155.623642 
	C370.517273,155.191345 359.181183,155.617050 347.861328,155.469559 
	C344.557343,155.426529 343.593719,156.694260 343.603027,159.865372 
	C343.687500,188.669083 343.676575,217.473190 343.616364,246.277023 
	C343.610443,249.113770 344.320068,250.560516 347.505646,250.515808 
	C358.824707,250.356964 370.163513,250.767807 381.463165,250.259186 
	C399.361847,249.453552 411.927399,238.689041 414.873444,220.974930 
	C416.306244,212.359711 415.735077,203.411209 416.050659,193.647430 
z"/>
<path fill="#F7F4F1" opacity="1.000000" stroke="none" 
	d="
M73.492577,236.999741 
	C73.492157,211.178680 73.370735,185.856552 73.596848,160.537537 
	C73.640106,155.694153 72.200836,154.116791 67.408005,154.400162 
	C61.146973,154.770355 54.847523,154.490829 48.287338,154.490829 
	C48.287338,148.923004 48.287338,144.181335 48.287338,138.529541 
	C52.574772,138.529541 56.681282,138.521820 60.787762,138.530731 
	C100.433891,138.616791 140.081024,138.581757 179.725235,138.906281 
	C186.990036,138.965744 194.414322,139.775269 201.470367,141.467255 
	C226.764420,147.532516 242.148392,165.943268 243.779236,192.441925 
	C244.347137,201.669464 244.186996,211.222107 242.447006,220.258011 
	C237.537415,245.753601 218.910126,262.591461 192.787704,265.914032 
	C184.395065,266.981506 175.857819,267.119415 167.379715,267.260193 
	C153.723114,267.486969 140.060699,267.361481 126.400749,267.388916 
	C124.064102,267.393616 121.684502,267.019714 121.696404,270.718079 
	C121.790215,299.869537 121.782448,329.021301 121.829102,358.172943 
	C121.829826,358.625977 122.123726,359.078522 122.480705,360.107544 
	C132.619522,360.107544 142.878281,360.107544 153.548553,360.107544 
	C153.548553,365.575562 153.548553,370.444885 153.548553,375.661438 
	C118.626099,375.661438 83.723618,375.661438 48.409214,375.661438 
	C48.409214,370.852448 48.409214,365.957916 48.409214,360.352173 
	C56.421593,360.352173 64.501373,360.352173 73.492424,360.352173 
	C73.492424,318.938049 73.492424,278.218903 73.492577,236.999741 
M164.324112,155.989471 
	C150.262512,155.989471 136.200912,155.989471 122.169266,155.989471 
	C122.169266,187.626373 122.169266,218.835190 122.169266,250.356003 
	C134.927094,250.356003 147.255203,250.805771 159.537796,250.249695 
	C177.568802,249.433365 190.206055,238.804047 192.843597,220.899734 
	C194.475677,209.820633 194.694473,198.186890 193.287460,187.088684 
	C191.232834,170.882111 182.099991,159.563782 164.324112,155.989471 
z"/>
<path fill="#C65B73" opacity="1.000000" stroke="none" 
	d="
M416.060852,194.130493 
	C415.735077,203.411209 416.306244,212.359711 414.873444,220.974930 
	C411.927399,238.689041 399.361847,249.453552 381.463165,250.259186 
	C370.163513,250.767807 358.824707,250.356964 347.505646,250.515808 
	C344.320068,250.560516 343.610443,249.113770 343.616364,246.277023 
	C343.676575,217.473190 343.687500,188.669083 343.603027,159.865372 
	C343.593719,156.694260 344.557343,155.426529 347.861328,155.469559 
	C359.181183,155.617050 370.517273,155.191345 381.822723,155.623642 
	C402.033020,156.396484 415.289703,171.357056 416.060852,194.130493 
z"/>
<path fill="#C65B73" opacity="1.000000" stroke="none" 
	d="
M164.748627,156.035049 
	C182.099991,159.563782 191.232834,170.882111 193.287460,187.088684 
	C194.694473,198.186890 194.475677,209.820633 192.843597,220.899734 
	C190.206055,238.804047 177.568802,249.433365 159.537796,250.249695 
	C147.255203,250.805771 134.927094,250.356003 122.169266,250.356003 
	C122.169266,218.835190 122.169266,187.626373 122.169266,155.989471 
	C136.200912,155.989471 150.262512,155.989471 164.748627,156.035049 
z"/>
</svg>