<?xml version="1.0" encoding="UTF-8" standalone="no"?>
<svg
   version="1.1"
   id="Layer_1"
   x="0px"
   y="0px"
   width="100%"
   viewBox="0 0 512 512"
   enable-background="new 0 0 512 512"
   xml:space="preserve"
   sodipodi:docname="android-chrome-512x512.svg"
   inkscape:version="1.4.2 (ebf0e940, 2025-05-08)"
   xmlns:inkscape="http://www.inkscape.org/namespaces/inkscape"
   xmlns:sodipodi="http://sodipodi.sourceforge.net/DTD/sodipodi-0.dtd"
   xmlns="http://www.w3.org/2000/svg"
   xmlns:svg="http://www.w3.org/2000/svg"><defs
   id="defs7" /><sodipodi:namedview
   id="namedview7"
   pagecolor="#ffffff"
   bordercolor="#000000"
   borderopacity="0.25"
   inkscape:showpageshadow="2"
   inkscape:pageopacity="0.0"
   inkscape:pagecheckerboard="0"
   inkscape:deskcolor="#d1d1d1"
   inkscape:zoom="0.52181271"
   inkscape:cx="258.71351"
   inkscape:cy="385.19567"
   inkscape:window-width="1472"
   inkscape:window-height="923"
   inkscape:window-x="0"
   inkscape:window-y="33"
   inkscape:window-maximized="0"
   inkscape:current-layer="Layer_1" />
<path
   fill="#C65A72"
   opacity="1.000000"
   stroke="none"
   d=" M0.999999,289.000000   C1.000000,267.979095 1.000000,246.958206 1.397119,225.661026   C2.192686,224.542480 2.816222,223.735352 2.953988,222.852417   C4.062160,215.750259 4.510199,208.493393 6.225912,201.547089   C12.298870,176.959793 20.737328,153.286652 33.313751,131.111526   C49.375622,102.790787 69.830231,78.134827 94.998466,57.718979   C112.851669,43.236912 132.375610,31.024336 153.736389,22.021217   C175.925430,12.668992 198.678925,5.499134 222.733887,2.918103   C223.548477,2.830700 224.247238,1.663753 225.000000,0.999999   C246.020889,1.000000 267.041779,1.000000 288.329651,1.390589   C289.271759,2.177704 289.906342,2.811038 290.628174,2.934534   C298.822266,4.336440 307.126648,5.236039 315.215515,7.084079   C340.333527,12.822716 364.218597,22.014580 386.335144,35.209637   C406.878632,47.466145 426.044342,61.658043 442.149872,79.610489   C446.793915,84.787125 452.153137,89.392143 456.326355,94.908424   C470.216431,113.268806 482.935303,132.371689 491.981873,153.721008   C501.384644,175.910889 508.337402,198.731674 511.081207,222.750977   C511.174011,223.563110 512.336243,224.253082 513.000000,225.000000   C513.000000,246.020889 513.000000,267.041779 512.602844,288.338989   C511.807251,289.457611 511.183746,290.264771 511.045959,291.147736   C509.937866,298.249756 509.489899,305.506470 507.774200,312.452637   C501.701202,337.039886 493.262817,360.713043 480.686432,382.888153   C464.624573,411.208862 444.169983,435.864777 419.001831,456.280762   C401.148651,470.762970 381.624725,482.975555 360.263977,491.978638   C338.074829,501.330902 315.321259,508.501038 291.266144,511.081909   C290.451538,511.169312 289.752777,512.336243 289.000000,513.000000   C267.979095,513.000000 246.958206,513.000000 225.661011,512.602844   C224.542435,511.807251 223.735275,511.183746 222.852341,511.046021   C215.750336,509.937897 208.493622,509.489929 201.547470,507.774231   C176.960190,501.701263 153.286957,493.262878 131.111832,480.686462   C102.791092,464.624634 78.135201,444.170013 57.719234,419.001831   C43.237034,401.148682 31.024511,381.624664 22.021393,360.263947   C12.669110,338.074829 5.498917,315.321228 2.918100,291.266083   C2.830706,290.451508 1.663752,289.752747 0.999999,289.000000  M303.142303,304.641724   C300.910187,305.837982 298.678101,307.034241 295.472412,308.752258   C294.704712,307.428802 293.697296,305.692108 292.504608,303.636017   C284.771484,309.887878 277.825470,315.503387 270.476227,321.444885   C283.400696,337.793213 298.401398,350.845215 318.547668,355.871613   C344.108978,362.249084 370.200226,362.211670 395.804077,356.516235   C423.367645,350.384888 438.878510,331.413208 441.521149,303.572113   C443.848145,279.056091 432.348328,259.441528 409.274628,250.838852   C399.236328,247.096252 388.392059,245.507065 377.903656,242.982193   C366.779724,240.304321 355.540253,238.036469 344.555817,234.878159   C338.907043,233.253998 334.012848,229.511948 331.621643,223.808746   C327.059937,212.928802 327.247772,202.005997 334.866547,192.683807   C342.431641,183.427307 352.446228,179.375183 364.674438,182.643066   C377.717682,186.128784 387.915497,193.805954 396.649536,204.022217   C398.704224,202.424088 400.618530,200.935181 403.225037,198.907867   C404.540649,200.807419 405.763672,202.573242 406.973785,204.320465   C409.442078,202.399261 411.362946,200.904144 413.661438,199.115112   C415.113159,200.955521 416.327393,202.494827 417.793854,204.353912   C424.634766,198.137146 431.093903,192.267319 437.845215,186.131989   C425.354462,171.433121 411.007538,160.756119 392.434875,157.030594   C372.990967,153.130280 353.300995,154.000763 333.706207,155.693573   C322.140869,156.692703 311.401611,160.590866 301.442291,166.817200   C271.550323,185.504974 267.924591,240.779556 306.261292,258.495239   C315.518005,262.772858 325.635895,265.442780 335.596130,267.876282   C347.682739,270.829407 360.355560,271.681763 372.170166,275.376343   C387.996765,280.325531 394.802917,295.909821 389.891907,312.089325   C385.698151,325.905823 368.983856,335.319885 354.480316,332.098480   C342.598236,329.459320 332.636902,323.366302 323.738159,315.285797   C320.049133,311.935974 316.293427,308.659546 312.240540,305.058777   C311.115326,305.798615 309.093658,307.127899 306.928406,308.551605   C305.716827,307.256439 304.707062,306.176941 303.142303,304.641724  M169.699524,331.924194   C146.043030,326.929504 130.745438,312.124451 128.319672,288.115417   C126.386772,268.984467 127.079735,249.535751 127.467758,230.245407   C127.655823,220.896057 130.849915,211.897842 136.113785,203.949860   C144.531006,191.240509 156.384338,182.415710 171.576874,183.040909   C187.650452,183.702362 199.084625,193.789413 206.096451,208.392685   C206.854889,209.972229 207.648834,211.534698 208.497238,213.248367   C211.459641,211.864838 213.970322,210.692276 216.397232,209.558853   C217.573303,210.969513 218.477814,212.054459 219.382339,213.139404   C222.183838,211.854813 224.707016,210.697845 227.216187,209.547287   C228.214005,210.952179 228.949066,211.987106 229.844284,213.247543   C238.164291,209.023087 246.279648,204.902557 254.834106,200.559082   C244.389160,178.233139 229.108521,161.572723 204.717804,157.432602   C188.298294,154.645538 171.201096,154.430511 154.487396,155.092712   C119.671669,156.472092 94.658569,173.648010 82.053551,206.302185   C69.021553,240.062500 69.263145,274.546356 82.090294,308.376801   C92.202522,335.046875 111.682968,352.636169 139.929184,357.411072   C156.489426,360.210510 173.793320,359.840179 190.674896,359.040924   C200.559021,358.573059 210.806381,355.690979 219.944031,351.718292   C237.064377,344.275085 248.767044,330.816589 256.645752,313.414276   C249.198746,308.407715 242.085220,303.625366 234.995026,298.858704   C233.671097,300.668518 232.717926,301.971497 231.689117,303.377899   C229.070618,301.803314 226.710999,300.384369 224.239868,298.898407   C223.120789,300.532501 222.214096,301.856476 221.153671,303.404907   C218.553268,301.879944 216.160828,300.476929 213.509842,298.922272   C204.391296,316.925323 191.115097,329.257141 169.699524,331.924194  z"
   id="path1" />




<path
   fill="#F7F4F1"
   opacity="1.000000"
   stroke="none"
   d=" M303.419800,304.869598   C304.707062,306.176941 305.716827,307.256439 306.928406,308.551605   C309.093658,307.127899 311.115326,305.798615 312.240540,305.058777   C316.293427,308.659546 320.049133,311.935974 323.738159,315.285797   C332.636902,323.366302 342.598236,329.459320 354.480316,332.098480   C368.983856,335.319885 385.698151,325.905823 389.891907,312.089325   C394.802917,295.909821 387.996765,280.325531 372.170166,275.376343   C360.355560,271.681763 347.682739,270.829407 335.596130,267.876282   C325.635895,265.442780 315.518005,262.772858 306.261292,258.495239   C267.924591,240.779556 271.550323,185.504974 301.442291,166.817200   C311.401611,160.590866 322.140869,156.692703 333.706207,155.693573   C353.300995,154.000763 372.990967,153.130280 392.434875,157.030594   C411.007538,160.756119 425.354462,171.433121 437.845215,186.131989   C431.093903,192.267319 424.634766,198.137146 417.793854,204.353912   C416.327393,202.494827 415.113159,200.955521 413.661438,199.115112   C411.362946,200.904144 409.442078,202.399261 406.973785,204.320465   C405.763672,202.573242 404.540649,200.807419 403.225037,198.907867   C400.618530,200.935181 398.704224,202.424088 396.649536,204.022217   C387.915497,193.805954 377.717682,186.128784 364.674438,182.643066   C352.446228,179.375183 342.431641,183.427307 334.866547,192.683807   C327.247772,202.005997 327.059937,212.928802 331.621643,223.808746   C334.012848,229.511948 338.907043,233.253998 344.555817,234.878159   C355.540253,238.036469 366.779724,240.304321 377.903656,242.982193   C388.392059,245.507065 399.236328,247.096252 409.274628,250.838852   C432.348328,259.441528 443.848145,279.056091 441.521149,303.572113   C438.878510,331.413208 423.367645,350.384888 395.804077,356.516235   C370.200226,362.211670 344.108978,362.249084 318.547668,355.871613   C298.401398,350.845215 283.400696,337.793213 270.476227,321.444885   C277.825470,315.503387 284.771484,309.887878 292.504608,303.636017   C293.697296,305.692108 294.704712,307.428802 295.472412,308.752258   C298.678101,307.034241 300.910187,305.837982 303.419800,304.869598  z"
   id="path6" />
<path
   fill="#F7F4F1"
   opacity="1.000000"
   stroke="none"
   d=" M170.122864,331.947144   C191.115097,329.257141 204.391296,316.925323 213.509842,298.922272   C216.160828,300.476929 218.553268,301.879944 221.153671,303.404907   C222.214096,301.856476 223.120789,300.532501 224.239868,298.898407   C226.710999,300.384369 229.070618,301.803314 231.689117,303.377899   C232.717926,301.971497 233.671097,300.668518 234.995026,298.858704   C242.085220,303.625366 249.198746,308.407715 256.645752,313.414276   C248.767044,330.816589 237.064377,344.275085 219.944031,351.718292   C210.806381,355.690979 200.559021,358.573059 190.674896,359.040924   C173.793320,359.840179 156.489426,360.210510 139.929184,357.411072   C111.682968,352.636169 92.202522,335.046875 82.090294,308.376801   C69.263145,274.546356 69.021553,240.062500 82.053551,206.302185   C94.658569,173.648010 119.671669,156.472092 154.487396,155.092712   C171.201096,154.430511 188.298294,154.645538 204.717804,157.432602   C229.108521,161.572723 244.389160,178.233139 254.834106,200.559082   C246.279648,204.902557 238.164291,209.023087 229.844284,213.247543   C228.949066,211.987106 228.214005,210.952179 227.216187,209.547287   C224.707016,210.697845 222.183838,211.854813 219.382339,213.139404   C218.477814,212.054459 217.573303,210.969513 216.397232,209.558853   C213.970322,210.692276 211.459641,211.864838 208.497238,213.248367   C207.648834,211.534698 206.854889,209.972229 206.096451,208.392685   C199.084625,193.789413 187.650452,183.702362 171.576874,183.040909   C156.384338,182.415710 144.531006,191.240509 136.113785,203.949860   C130.849915,211.897842 127.655823,220.896057 127.467758,230.245407   C127.079735,249.535751 126.386772,268.984467 128.319672,288.115417   C130.745438,312.124451 146.043030,326.929504 170.122864,331.947144  z"
   id="path7" />
</svg>
