<?xml version="1.0" encoding="UTF-8" standalone="no"?>
<svg
   version="1.1"
   id="Layer_1"
   x="0px"
   y="0px"
   width="100%"
   viewBox="0 0 512 512"
   enable-background="new 0 0 512 512"
   xml:space="preserve"
   sodipodi:docname="android-chrome-512x512.svg"
   inkscape:version="1.4.2 (ebf0e940, 2025-05-08)"
   xmlns:inkscape="http://www.inkscape.org/namespaces/inkscape"
   xmlns:sodipodi="http://sodipodi.sourceforge.net/DTD/sodipodi-0.dtd"
   xmlns="http://www.w3.org/2000/svg"
   xmlns:svg="http://www.w3.org/2000/svg"><defs
   id="defs9" /><sodipodi:namedview
   id="namedview9"
   pagecolor="#ffffff"
   bordercolor="#000000"
   borderopacity="0.25"
   inkscape:showpageshadow="2"
   inkscape:pageopacity="0.0"
   inkscape:pagecheckerboard="0"
   inkscape:deskcolor="#d1d1d1"
   inkscape:zoom="0.44747069"
   inkscape:cx="74.865239"
   inkscape:cy="111.73916"
   inkscape:window-width="896"
   inkscape:window-height="605"
   inkscape:window-x="0"
   inkscape:window-y="34"
   inkscape:window-maximized="0"
   inkscape:current-layer="Layer_1" />
<path
   fill="#C65A72"
   opacity="1.000000"
   stroke="none"
   d=" M225.000000,0.999996   C246.020889,1.000000 267.041779,1.000000 288.329620,1.390580   C289.271637,2.177698 289.906189,2.811053 290.627991,2.934545   C298.822113,4.336452 307.126495,5.236081 315.215393,7.084097   C340.333466,12.822659 364.218506,22.014606 386.335083,35.209644   C406.878601,47.466133 426.044312,61.658127 442.149872,79.610512   C446.793976,84.787140 452.153137,89.392204 456.326324,94.908501   C470.216370,113.268913 482.935303,132.371780 491.981873,153.721115   C501.384644,175.910995 508.337402,198.731781 511.081146,222.751083   C511.173920,223.563187 512.336243,224.253128 513.000000,225.000000   C513.000000,246.020889 513.000000,267.041779 512.602844,288.338989   C511.807251,289.457550 511.183716,290.264709 511.045959,291.147675   C509.937836,298.249695 509.489929,305.506409 507.774231,312.452576   C501.701263,337.039825 493.262817,360.713043 480.686432,382.888153   C464.624573,411.208893 444.169952,435.864868 419.001770,456.280792   C401.148529,470.762939 381.624603,482.975464 360.263855,491.978607   C338.074707,501.330933 315.321075,508.501038 291.265930,511.081909   C290.451416,511.169312 289.752686,512.336243 289.000000,513.000000   C267.979095,513.000000 246.958206,513.000000 225.661057,512.602905   C224.542603,511.807343 223.735535,511.183716 222.852661,511.045990   C215.750626,509.937866 208.493851,509.490082 201.547699,507.774353   C176.960403,501.701324 153.287170,493.262909 131.112030,480.686523   C102.791245,464.624695 78.135277,444.170074 57.719269,419.001862   C43.237057,401.148682 31.024553,381.624664 22.021402,360.263947   C12.669083,338.074768 5.498946,315.321136 2.918132,291.265930   C2.830740,290.451385 1.663769,289.752686 1.000004,289.000000   C1.000000,267.979095 1.000000,246.958206 1.397103,225.661072   C2.192671,224.542496 2.816229,223.735306 2.954009,222.852310   C4.062193,215.750168 4.510268,208.493301 6.225975,201.546997   C12.298924,176.959717 20.737396,153.286560 33.313816,131.111465   C49.375683,102.790703 69.830299,78.134735 94.998566,57.718925   C112.851776,43.236893 132.375702,31.024317 153.736496,22.021194   C175.925568,12.668975 198.679047,5.499179 222.733978,2.918117   C223.548538,2.830714 224.247269,1.663752 225.000000,0.999996  M145.855881,337.447571   C145.855881,324.925659 145.855881,312.403748 145.855881,299.698151   C150.702652,301.630554 154.590530,303.615845 158.715134,304.703156   C162.865173,305.797180 167.234970,306.279907 171.536942,306.519470   C177.016891,306.824615 182.525543,306.598267 188.021637,306.632568   C214.680832,306.798889 234.626816,293.131897 242.949280,267.797729   C250.916946,243.543594 250.918884,218.851059 243.055771,194.578705   C234.740173,168.909576 214.805573,155.245758 187.894791,155.380615   C173.651901,155.451981 159.237732,154.225204 146.214783,162.758118   C145.914490,160.059769 145.699173,158.124939 145.485764,156.207275   C138.713623,156.207275 132.122299,155.454102 125.771652,156.369949   C113.923782,158.078583 102.242294,160.911423 90.433922,162.940964   C86.763214,163.571854 86.415009,165.515427 86.496391,168.479248   C86.572952,171.266983 86.332161,173.752975 90.304359,174.069901   C94.103287,174.373016 97.828293,175.674469 101.625084,175.913818   C106.088135,176.195145 107.276962,178.067932 107.263718,182.481171   C107.105637,235.136444 107.164268,287.792358 107.150444,340.448090   C107.149986,342.208405 106.983917,343.968658 106.863197,346.359650   C99.945938,346.359650 93.533524,346.359650 86.902130,346.359650   C86.902130,350.922516 86.902130,354.820404 86.902130,359.010498   C115.339340,359.010498 143.415649,359.010498 171.739197,359.010498   C171.739197,354.668304 171.739197,350.776093 171.739197,346.110474   C163.050446,346.110474 154.656570,346.110474 145.855865,346.110474   C145.855865,343.035614 145.855865,340.731781 145.855881,337.447571  M427.935120,226.601517   C426.926971,218.519730 426.638397,210.267578 424.773224,202.388672   C419.564667,180.386688 407.828033,162.851471 384.751984,157.708405   C365.258606,153.363815 345.094818,152.254166 326.261383,162.224670   C326.064911,162.328690 325.678375,162.073776 325.349518,161.977310   C325.158447,160.051682 324.967407,158.126389 324.793457,156.373138   C304.415649,154.209793 285.577393,160.700226 266.410370,163.677856   C265.304718,173.264404 265.303314,173.272369 273.861450,174.778702   C276.483704,175.240250 279.103668,175.885635 281.746399,176.020157   C285.812622,176.227127 286.841431,178.168427 286.832520,182.082916   C286.712585,234.888718 286.754700,287.694885 286.740784,340.500977   C286.740326,342.255341 286.572266,344.009613 286.454132,346.313995   C279.434570,346.313995 272.993011,346.313995 266.268982,346.313995   C266.268982,350.793488 266.268982,354.686340 266.268982,358.898773   C294.713470,358.898773 322.882141,358.898773 351.061829,358.898773   C351.061829,354.446289 351.061829,350.559784 351.061829,345.933777   C342.209045,345.933777 333.814758,345.933777 325.377197,345.933777   C325.377197,330.109222 325.377197,315.035278 325.377197,300.017548   C330.718109,301.867767 335.728271,304.188232 340.992767,305.263672   C346.320038,306.351959 351.894623,306.294342 357.369324,306.572693   C360.856842,306.750000 364.359741,306.620728 367.855713,306.636627   C393.799133,306.754456 413.188354,293.265381 422.090637,268.870178   C426.961273,255.522980 428.158112,241.646500 427.935120,226.601517  z"
   id="path1" />




<path
   fill="#F7F3F1"
   opacity="1.000000"
   stroke="none"
   d=" M145.855865,337.937775   C145.855865,340.731781 145.855865,343.035614 145.855865,346.110474   C154.656570,346.110474 163.050446,346.110474 171.739197,346.110474   C171.739197,350.776093 171.739197,354.668304 171.739197,359.010498   C143.415649,359.010498 115.339340,359.010498 86.902130,359.010498   C86.902130,354.820404 86.902130,350.922516 86.902130,346.359650   C93.533524,346.359650 99.945938,346.359650 106.863197,346.359650   C106.983917,343.968658 107.149986,342.208405 107.150444,340.448090   C107.164268,287.792358 107.105637,235.136444 107.263718,182.481171   C107.276962,178.067932 106.088135,176.195145 101.625084,175.913818   C97.828293,175.674469 94.103287,174.373016 90.304359,174.069901   C86.332161,173.752975 86.572952,171.266983 86.496391,168.479248   C86.415009,165.515427 86.763214,163.571854 90.433922,162.940964   C102.242294,160.911423 113.923782,158.078583 125.771652,156.369949   C132.122299,155.454102 138.713623,156.207275 145.485764,156.207275   C145.699173,158.124939 145.914490,160.059769 146.214783,162.758118   C159.237732,154.225204 173.651901,155.451981 187.894791,155.380615   C214.805573,155.245758 234.740173,168.909576 243.055771,194.578705   C250.918884,218.851059 250.916946,243.543594 242.949280,267.797729   C234.626816,293.131897 214.680832,306.798889 188.021637,306.632568   C182.525543,306.598267 177.016891,306.824615 171.536942,306.519470   C167.234970,306.279907 162.865173,305.797180 158.715134,304.703156   C154.590530,303.615845 150.702652,301.630554 145.855881,299.698151   C145.855881,312.403748 145.855881,324.925659 145.855865,337.937775  M208.021790,226.503036   C207.998810,222.672043 208.140335,218.831650 207.922485,215.011765   C207.222321,202.733765 204.008682,191.378296 195.236465,182.211426   C178.672104,164.901825 158.485550,173.282104 148.969101,188.403168   C147.272583,191.098831 146.110321,194.630768 146.075394,197.791748   C145.830658,219.942001 145.796463,242.097595 145.997375,264.248749   C146.144272,280.444702 170.160538,294.106201 182.906799,288.115601   C195.241959,282.318176 203.205338,273.104462 205.654617,260.246765   C207.688644,249.568985 207.323914,238.434280 208.021790,226.503036  z"
   id="path6" />
<path
   fill="#F7F4F1"
   opacity="1.000000"
   stroke="none"
   d=" M427.940430,227.087906   C428.158112,241.646500 426.961273,255.522980 422.090637,268.870178   C413.188354,293.265381 393.799133,306.754456 367.855713,306.636627   C364.359741,306.620728 360.856842,306.750000 357.369324,306.572693   C351.894623,306.294342 346.320038,306.351959 340.992767,305.263672   C335.728271,304.188232 330.718109,301.867767 325.377197,300.017548   C325.377197,315.035278 325.377197,330.109222 325.377197,345.933777   C333.814758,345.933777 342.209045,345.933777 351.061829,345.933777   C351.061829,350.559784 351.061829,354.446289 351.061829,358.898773   C322.882141,358.898773 294.713470,358.898773 266.268982,358.898773   C266.268982,354.686340 266.268982,350.793488 266.268982,346.313995   C272.993011,346.313995 279.434570,346.313995 286.454132,346.313995   C286.572266,344.009613 286.740326,342.255341 286.740784,340.500977   C286.754700,287.694885 286.712585,234.888718 286.832520,182.082916   C286.841431,178.168427 285.812622,176.227127 281.746399,176.020157   C279.103668,175.885635 276.483704,175.240250 273.861450,174.778702   C265.303314,173.272369 265.304718,173.264404 266.410370,163.677856   C285.577393,160.700226 304.415649,154.209793 324.793457,156.373138   C324.967407,158.126389 325.158447,160.051682 325.349518,161.977310   C325.678375,162.073776 326.064911,162.328690 326.261383,162.224670   C345.094818,152.254166 365.258606,153.363815 384.751984,157.708405   C407.828033,162.851471 419.564667,180.386688 424.773224,202.388672   C426.638397,210.267578 426.926971,218.519730 427.940430,227.087906  M365.713440,286.395355   C377.506134,280.114685 384.566986,269.814972 385.744751,257.080383   C387.238739,240.926529 387.009216,224.551910 386.528442,208.301910   C386.276398,199.782211 382.624725,191.848282 377.152069,185.036774   C371.257599,177.700333 363.571838,171.884964 354.340607,172.425003   C340.391571,173.241043 324.932037,183.579590 325.080811,201.442062   C325.244385,221.081665 325.888336,240.762787 324.893951,260.353271   C323.957367,278.805450 349.267426,296.686157 365.713440,286.395355  z"
   id="path7" />
<path
   fill="#C65B73"
   opacity="1.000000"
   stroke="none"
   d=" M208.021790,227.002502   C207.323914,238.434280 207.688644,249.568985 205.654617,260.246765   C203.205338,273.104462 195.241959,282.318176 182.906799,288.115601   C170.160538,294.106201 146.144272,280.444702 145.997375,264.248749   C145.796463,242.097595 145.830658,219.942001 146.075394,197.791748   C146.110321,194.630768 147.272583,191.098831 148.969101,188.403168   C158.485550,173.282104 178.672104,164.901825 195.236465,182.211426   C204.008682,191.378296 207.222321,202.733765 207.922485,215.011765   C208.140335,218.831650 207.998810,222.672043 208.021790,227.002502  z"
   id="path8" />
<path
   fill="#C65B73"
   opacity="1.000000"
   stroke="none"
   d=" M365.386963,286.583130   C349.267426,296.686157 323.957367,278.805450 324.893951,260.353271   C325.888336,240.762787 325.244385,221.081665 325.080811,201.442062   C324.932037,183.579590 340.391571,173.241043 354.340607,172.425003   C363.571838,171.884964 371.257599,177.700333 377.152069,185.036774   C382.624725,191.848282 386.276398,199.782211 386.528442,208.301910   C387.009216,224.551910 387.238739,240.926529 385.744751,257.080383   C384.566986,269.814972 377.506134,280.114685 365.386963,286.583130  z"
   id="path9" />
</svg>
