<?xml version="1.0" encoding="UTF-8" standalone="no"?>
<svg
   version="1.1"
   id="Layer_1"
   x="0px"
   y="0px"
   width="100%"
   viewBox="0 0 500 500"
   enable-background="new 0 0 500 500"
   xml:space="preserve"
   sodipodi:docname="file-2.svg"
   inkscape:version="1.4.2 (ebf0e940, 2025-05-08)"
   xmlns:inkscape="http://www.inkscape.org/namespaces/inkscape"
   xmlns:sodipodi="http://sodipodi.sourceforge.net/DTD/sodipodi-0.dtd"
   xmlns="http://www.w3.org/2000/svg"
   xmlns:svg="http://www.w3.org/2000/svg"><defs
   id="defs7" /><sodipodi:namedview
   id="namedview7"
   pagecolor="#ffffff"
   bordercolor="#000000"
   borderopacity="0.25"
   inkscape:showpageshadow="2"
   inkscape:pageopacity="0.0"
   inkscape:pagecheckerboard="0"
   inkscape:deskcolor="#d1d1d1"
   inkscape:zoom="0.42987813"
   inkscape:cx="46.524814"
   inkscape:cy="52.340416"
   inkscape:window-width="1160"
   inkscape:window-height="642"
   inkscape:window-x="0"
   inkscape:window-y="34"
   inkscape:window-maximized="0"
   inkscape:current-layer="Layer_1" />
<path
   fill="#C65A72"
   opacity="1.000000"
   stroke="none"
   d=" M269.000000,501.000000   C256.645782,501.000000 244.291550,501.000000 231.253448,500.650970   C188.679733,496.449951 149.833755,483.559204 114.709236,460.321716   C54.658737,420.593750 18.210741,365.077118 4.915550,294.347992   C3.457996,286.593964 2.298007,278.784027 1.000001,271.000000   C1.000000,258.312439 1.000000,245.624878 1.330750,232.223526   C5.875971,184.890854 20.712194,142.074112 48.688713,104.373695   C90.227371,48.397305 145.435150,14.528137 214.543579,3.794204   C220.366577,2.889772 226.181381,1.932646 232.000000,1.000000   C244.354233,1.000000 256.708466,1.000000 269.752563,1.350346   C279.511932,2.920058 288.655670,3.741939 297.639618,5.419528   C401.573334,24.827253 482.762360,109.363808 498.179596,214.036285   C499.062805,220.032578 500.057312,226.012466 501.000000,232.000000   C501.000000,244.020889 501.000000,256.041779 500.677063,268.789703   C497.559113,303.595215 489.015778,336.162537 472.716797,366.248962   C432.573151,440.350616 370.590698,484.195953 287.493408,498.184875   C281.345184,499.219879 275.165222,500.066040 269.000000,501.000000  M275.589478,195.235382   C275.063202,202.845184 273.627502,210.521896 274.181427,218.052246   C275.834259,240.522049 286.285950,257.625885 307.307648,267.079285   C313.784698,269.992035 320.666199,272.430908 327.616180,273.775391   C340.836151,276.332794 354.279541,277.712494 367.552185,280.028137   C377.079742,281.690369 384.895111,285.855042 387.095276,296.552002   C390.064514,310.987915 382.495483,323.608551 368.128510,326.892242   C352.023682,330.573151 336.123413,329.177277 321.520691,321.348328   C313.138214,316.854279 305.721100,310.559662 298.931976,305.817749   C288.958282,315.469696 278.490204,325.600037 267.855835,335.891357   C278.013611,346.927124 289.939636,355.924072 303.835266,361.958740   C326.926575,371.986938 351.027832,372.565002 375.411804,368.198395   C415.584778,361.004395 437.777710,332.672943 434.978729,292.017487   C433.589142,271.833801 424.881165,255.649719 406.179016,246.711365   C396.527039,242.098358 386.091064,238.768372 375.679169,236.193619   C362.784302,233.004837 349.440094,231.660995 336.491669,228.652161   C326.141602,226.247101 321.523163,219.296844 321.326965,208.503815   C321.156586,199.131317 326.340637,191.634018 336.144165,189.049301   C356.799011,183.603668 376.094147,186.323807 393.002350,200.310394   C395.407837,202.300232 397.576904,204.575897 398.943695,205.861633   C409.735229,195.515625 420.357849,185.331589 431.696136,174.461395   C429.323425,172.416870 427.121338,170.396698 424.789581,168.539291   C421.406677,165.844559 418.136322,162.928360 414.461182,160.693253   C382.480560,141.243851 348.706238,139.612335 314.227936,152.265869   C294.552368,159.486847 281.058350,173.491241 275.589478,195.235382  M152.473373,370.126404   C160.948746,370.092407 169.494644,370.753448 177.887024,369.901764   C210.778107,366.563873 231.556061,346.914978 246.053528,318.463623   C239.374023,314.541504 233.072968,310.830139 226.760559,307.138245   C220.375778,303.403992 213.979736,299.688995 208.966263,296.768188   C202.319931,305.043793 197.316696,313.947998 189.951797,319.958252   C164.650452,340.605896 123.745094,324.770721 119.427353,291.797729   C116.640877,270.518494 117.118042,248.538681 118.638306,227.050110   C119.996590,207.851089 130.670502,193.348206 150.418884,188.568863   C166.387741,184.704224 182.250717,185.274902 194.163223,198.919754   C198.646896,204.055435 201.590775,210.535416 205.448853,216.744125   C218.409439,210.028625 231.791306,203.094818 245.471344,196.006516   C236.889954,177.038010 225.096191,161.877090 206.409439,152.924515   C190.610916,145.355652 173.808914,144.195587 156.647781,144.860718   C119.561707,146.298141 89.933167,167.404480 76.853920,202.089127   C65.030464,233.443588 63.868824,265.665771 71.202423,297.973480   C81.036140,341.295319 109.617714,366.343323 152.473373,370.126404  z"
   id="path1" />




<path
   fill="#F7F4F1"
   opacity="1.000000"
   stroke="none"
   d=" M275.706604,194.836884   C281.058350,173.491241 294.552368,159.486847 314.227936,152.265869   C348.706238,139.612335 382.480560,141.243851 414.461182,160.693253   C418.136322,162.928360 421.406677,165.844559 424.789581,168.539291   C427.121338,170.396698 429.323425,172.416870 431.696136,174.461395   C420.357849,185.331589 409.735229,195.515625 398.943695,205.861633   C397.576904,204.575897 395.407837,202.300232 393.002350,200.310394   C376.094147,186.323807 356.799011,183.603668 336.144165,189.049301   C326.340637,191.634018 321.156586,199.131317 321.326965,208.503815   C321.523163,219.296844 326.141602,226.247101 336.491669,228.652161   C349.440094,231.660995 362.784302,233.004837 375.679169,236.193619   C386.091064,238.768372 396.527039,242.098358 406.179016,246.711365   C424.881165,255.649719 433.589142,271.833801 434.978729,292.017487   C437.777710,332.672943 415.584778,361.004395 375.411804,368.198395   C351.027832,372.565002 326.926575,371.986938 303.835266,361.958740   C289.939636,355.924072 278.013611,346.927124 267.855835,335.891357   C278.490204,325.600037 288.958282,315.469696 298.931976,305.817749   C305.721100,310.559662 313.138214,316.854279 321.520691,321.348328   C336.123413,329.177277 352.023682,330.573151 368.128510,326.892242   C382.495483,323.608551 390.064514,310.987915 387.095276,296.552002   C384.895111,285.855042 377.079742,281.690369 367.552185,280.028137   C354.279541,277.712494 340.836151,276.332794 327.616180,273.775391   C320.666199,272.430908 313.784698,269.992035 307.307648,267.079285   C286.285950,257.625885 275.834259,240.522049 274.181427,218.052246   C273.627502,210.521896 275.063202,202.845184 275.706604,194.836884  z"
   id="path6" />
<path
   fill="#F7F4F1"
   opacity="1.000000"
   stroke="none"
   d=" M152.013885,370.091309   C109.617714,366.343323 81.036140,341.295319 71.202423,297.973480   C63.868824,265.665771 65.030464,233.443588 76.853920,202.089127   C89.933167,167.404480 119.561707,146.298141 156.647781,144.860718   C173.808914,144.195587 190.610916,145.355652 206.409439,152.924515   C225.096191,161.877090 236.889954,177.038010 245.471344,196.006516   C231.791306,203.094818 218.409439,210.028625 205.448853,216.744125   C201.590775,210.535416 198.646896,204.055435 194.163223,198.919754   C182.250717,185.274902 166.387741,184.704224 150.418884,188.568863   C130.670502,193.348206 119.996590,207.851089 118.638306,227.050110   C117.118042,248.538681 116.640877,270.518494 119.427353,291.797729   C123.745094,324.770721 164.650452,340.605896 189.951797,319.958252   C197.316696,313.947998 202.319931,305.043793 208.966263,296.768188   C213.979736,299.688995 220.375778,303.403992 226.760559,307.138245   C233.072968,310.830139 239.374023,314.541504 246.053528,318.463623   C231.556061,346.914978 210.778107,366.563873 177.887024,369.901764   C169.494644,370.753448 160.948746,370.092407 152.013885,370.091309  z"
   id="path7" />
</svg>
