<?xml version="1.0" encoding="UTF-8" standalone="no"?>
<svg
   version="1.1"
   id="Layer_1"
   x="0px"
   y="0px"
   width="100%"
   viewBox="0 0 500 500"
   enable-background="new 0 0 500 500"
   xml:space="preserve"
   sodipodi:docname="file-2.svg"
   inkscape:version="1.4.2 (ebf0e940, 2025-05-08)"
   xmlns:inkscape="http://www.inkscape.org/namespaces/inkscape"
   xmlns:sodipodi="http://sodipodi.sourceforge.net/DTD/sodipodi-0.dtd"
   xmlns="http://www.w3.org/2000/svg"
   xmlns:svg="http://www.w3.org/2000/svg"><defs
   id="defs7" /><sodipodi:namedview
   id="namedview7"
   pagecolor="#ffffff"
   bordercolor="#000000"
   borderopacity="0.25"
   inkscape:showpageshadow="2"
   inkscape:pageopacity="0.0"
   inkscape:pagecheckerboard="0"
   inkscape:deskcolor="#d1d1d1"
   inkscape:zoom="0.34198795"
   inkscape:cx="470.77683"
   inkscape:cy="311.41448"
   inkscape:window-width="896"
   inkscape:window-height="490"
   inkscape:window-x="198"
   inkscape:window-y="172"
   inkscape:window-maximized="0"
   inkscape:current-layer="Layer_1" />
<path
   fill="#C65A72"
   opacity="1.000000"
   stroke="none"
   d=" M232.000000,1.000001   C244.354233,1.000000 256.708466,1.000000 269.748413,1.348152   C279.503632,2.916572 288.646881,3.741214 297.631226,5.417554   C401.553650,24.807838 482.763672,109.363121 498.179474,214.035889   C499.062592,220.032318 500.057251,226.012344 501.000000,232.000000   C501.000000,244.020889 501.000000,256.041779 500.677002,268.789673   C497.558990,303.595154 489.015656,336.162537 472.716644,366.248993   C432.572906,440.350494 370.590576,484.195892 287.493317,498.184753   C281.345123,499.219727 275.165192,500.065979 269.000000,501.000000   C256.645782,501.000000 244.291550,501.000000 231.257629,500.653198   C188.689392,496.447327 149.840286,483.563385 114.714386,460.325317   C54.661812,420.596619 18.211657,365.079742 4.915737,294.348572   C3.458112,286.594360 2.298066,278.784210 1.000000,271.000000   C1.000000,258.312439 1.000000,245.624878 1.330781,232.223572   C5.876508,184.890945 20.712273,142.073914 48.689037,104.373405   C90.228027,48.396927 145.436050,14.527807 214.544769,3.794129   C220.367386,2.889785 226.181778,1.932625 232.000000,1.000001  M336.489136,192.807861   C357.543243,189.620178 375.731567,194.998444 389.807526,210.656174   C399.932007,200.874832 409.844727,191.298111 420.438812,181.063065   C414.988678,176.560532 410.194580,171.571976 404.491333,168.059875   C373.922089,149.235199 341.431580,147.929321 308.653931,160.502853   C283.836273,170.022964 270.532593,193.183167 272.399109,219.159256   C274.428436,247.400543 288.594910,264.955139 316.517242,271.869629   C330.190155,275.255463 344.357605,276.615784 358.264679,279.097687   C364.159668,280.149750 370.088165,281.466583 374.214874,286.477600   C385.475586,300.151337 376.860565,321.001495 358.385803,324.067230   C338.122864,327.429657 319.686859,322.992645 303.727722,309.665466   C300.850616,307.262878 298.150604,304.648254 296.111572,302.803497   C286.198090,312.523071 276.593140,321.940155 266.686584,331.652893   C275.966217,342.105286 287.166168,350.333099 300.074493,355.976837   C322.865967,365.941589 346.735840,366.841766 370.606537,361.576019   C403.678619,354.280487 421.482544,333.005493 423.503143,300.274628   C425.136902,273.810516 413.227386,253.997040 388.458313,244.699097   C377.355499,240.531281 365.332428,238.805588 353.715210,236.020660   C344.689240,233.856934 335.557251,232.075867 326.644806,229.522705   C321.939636,228.174774 319.200378,224.270554 317.830750,219.424210   C313.943634,205.669540 320.387817,195.996368 336.489136,192.807861  M174.419434,152.961502   C172.920120,152.929840 171.420914,152.875687 169.921494,152.869843   C127.622269,152.704605 97.615730,174.193115 85.251129,214.030426   C77.396317,239.337708 76.883339,265.174866 81.571030,291.118958   C84.857307,309.306885 91.696159,325.974854 104.694397,339.534515   C122.753548,358.373688 145.560547,364.769745 170.909576,364.416718   C190.115463,364.149200 207.852539,359.712982 222.700394,346.770996   C232.706207,338.049591 240.611786,327.762787 246.197556,315.348846   C234.122421,308.384369 222.354401,301.597015 210.251160,294.616302   C209.322174,296.535248 208.638351,298.013000 207.899765,299.462799   C203.428146,308.240295 197.660217,316.017365 188.720047,320.549316   C161.991455,334.098633 130.609314,318.342804 127.352043,288.615814   C125.331604,270.176636 125.230553,251.279922 126.651039,232.771484   C128.567490,207.800858 142.981522,194.279419 166.217209,192.361221   C184.853287,190.822739 198.088669,198.723373 205.565201,215.847382   C206.201508,217.304733 206.847672,218.757767 207.666992,220.615952   C220.620239,213.879044 233.107513,207.384506 245.793915,200.786392   C244.525330,198.108612 243.589417,195.985275 242.532364,193.924072   C228.509033,166.578735 205.396835,154.125870 174.419434,152.961502  z"
   id="path1" />




<path
   fill="#F7F4F1"
   opacity="1.000000"
   stroke="none"
   d=" M336.064850,192.867004   C320.387817,195.996368 313.943634,205.669540 317.830750,219.424210   C319.200378,224.270554 321.939636,228.174774 326.644806,229.522705   C335.557251,232.075867 344.689240,233.856934 353.715210,236.020660   C365.332428,238.805588 377.355499,240.531281 388.458313,244.699097   C413.227386,253.997040 425.136902,273.810516 423.503143,300.274628   C421.482544,333.005493 403.678619,354.280487 370.606537,361.576019   C346.735840,366.841766 322.865967,365.941589 300.074493,355.976837   C287.166168,350.333099 275.966217,342.105286 266.686584,331.652893   C276.593140,321.940155 286.198090,312.523071 296.111572,302.803497   C298.150604,304.648254 300.850616,307.262878 303.727722,309.665466   C319.686859,322.992645 338.122864,327.429657 358.385803,324.067230   C376.860565,321.001495 385.475586,300.151337 374.214874,286.477600   C370.088165,281.466583 364.159668,280.149750 358.264679,279.097687   C344.357605,276.615784 330.190155,275.255463 316.517242,271.869629   C288.594910,264.955139 274.428436,247.400543 272.399109,219.159256   C270.532593,193.183167 283.836273,170.022964 308.653931,160.502853   C341.431580,147.929321 373.922089,149.235199 404.491333,168.059875   C410.194580,171.571976 414.988678,176.560532 420.438812,181.063065   C409.844727,191.298111 399.932007,200.874832 389.807526,210.656174   C375.731567,194.998444 357.543243,189.620178 336.064850,192.867004  z"
   id="path6" />
<path
   fill="#F7F4F1"
   opacity="1.000000"
   stroke="none"
   d=" M174.904541,152.975769   C205.396835,154.125870 228.509033,166.578735 242.532364,193.924072   C243.589417,195.985275 244.525330,198.108612 245.793915,200.786392   C233.107513,207.384506 220.620239,213.879044 207.666992,220.615952   C206.847672,218.757767 206.201508,217.304733 205.565201,215.847382   C198.088669,198.723373 184.853287,190.822739 166.217209,192.361221   C142.981522,194.279419 128.567490,207.800858 126.651039,232.771484   C125.230553,251.279922 125.331604,270.176636 127.352043,288.615814   C130.609314,318.342804 161.991455,334.098633 188.720047,320.549316   C197.660217,316.017365 203.428146,308.240295 207.899765,299.462799   C208.638351,298.013000 209.322174,296.535248 210.251160,294.616302   C222.354401,301.597015 234.122421,308.384369 246.197556,315.348846   C240.611786,327.762787 232.706207,338.049591 222.700394,346.770996   C207.852539,359.712982 190.115463,364.149200 170.909576,364.416718   C145.560547,364.769745 122.753548,358.373688 104.694397,339.534515   C91.696159,325.974854 84.857307,309.306885 81.571030,291.118958   C76.883339,265.174866 77.396317,239.337708 85.251129,214.030426   C97.615730,174.193115 127.622269,152.704605 169.921494,152.869843   C171.420914,152.875687 172.920120,152.929840 174.904541,152.975769  z"
   id="path7" />
</svg>
