<?xml version="1.0" encoding="UTF-8" standalone="no"?>
<svg
   version="1.1"
   id="Layer_1"
   x="0px"
   y="0px"
   width="100%"
   viewBox="0 0 512 512"
   enable-background="new 0 0 512 512"
   xml:space="preserve"
   xmlns="http://www.w3.org/2000/svg"
   xmlns:svg="http://www.w3.org/2000/svg"><defs
   id="defs7" />
<path
   fill="#C65A72"
   opacity="1.000000"
   stroke="none"
   d=" M225.000000,1.000000   C246.020889,1.000000 267.041779,1.000000 288.340698,1.393755   C289.128296,2.167832 289.593933,2.790353 290.154022,2.891935   C297.844788,4.286747 305.587067,5.421091 313.242310,6.983926   C342.145844,12.884665 368.761505,24.350758 393.772003,39.898308   C417.123505,54.414570 437.273041,72.588135 454.821960,93.535721   C469.656433,111.243141 481.774139,130.785965 491.094696,152.063766   C501.025208,174.734070 508.134216,198.111542 511.080383,222.722626   C511.178986,223.546524 512.336243,224.243729 513.000000,225.000000   C513.000000,246.020889 513.000000,267.041779 512.606323,288.340668   C511.832214,289.128296 511.209686,289.593994 511.108093,290.154175   C509.713257,297.844757 508.556610,305.581757 507.020111,313.242889   C501.214874,342.187988 489.582916,368.742493 474.091858,393.767426   C459.619873,417.146179 441.411591,437.273071 420.464508,454.821747   C402.757568,469.656036 383.204651,481.750641 361.940948,491.100403   C339.275269,501.066620 315.889557,508.136047 291.277252,511.080414   C290.453400,511.178955 289.756226,512.336243 289.000000,513.000000   C267.979095,513.000000 246.958206,513.000000 225.659317,512.606262   C224.871735,511.832184 224.406082,511.209656 223.845947,511.108063   C216.155350,509.713226 208.418381,508.556580 200.757248,507.020111   C171.812027,501.215088 145.257614,489.582886 120.232605,474.091888   C96.853867,459.619965 76.726974,441.411652 59.178280,420.464569   C44.344006,402.757629 32.249413,383.204681 22.899672,361.940979   C12.933490,339.275299 5.863914,315.889648 2.919605,291.277344   C2.821046,290.453491 1.663781,289.756256 1.000004,289.000000   C1.000000,267.979095 1.000000,246.958206 1.393734,225.659302   C2.167799,224.871719 2.790354,224.406082 2.891936,223.845978   C4.286756,216.155167 5.445067,208.418335 6.979673,200.756546   C12.777320,171.810730 24.410801,145.259369 39.906956,120.239410   C54.383915,96.865021 72.581833,76.728447 93.531738,59.180733   C111.240814,44.347557 130.792755,32.250717 152.056839,22.900396   C174.722961,12.933563 198.109299,5.863275 222.722565,2.919600   C223.546448,2.821066 224.243713,1.663774 225.000000,1.000000  M175.491806,201.499756   C175.491623,262.320221 175.492752,323.140656 175.489456,383.961121   C175.489090,390.823364 175.477509,390.828033 168.799591,390.831726   C160.202225,390.836517 151.604858,390.832886 142.932037,390.832886   C142.932037,397.944305 142.932037,404.322083 142.932037,410.671326   C180.453339,410.671326 217.534119,410.671326 254.669846,410.671326   C254.669846,403.953522 254.669846,397.570435 254.669846,390.586243   C240.707306,390.586243 227.140503,390.586243 213.512848,390.586243   C213.512848,350.234985 213.512848,310.497040 213.512848,270.167053   C215.805710,270.167053 217.759125,270.167084 219.712555,270.167053   C240.041641,270.166962 260.374634,270.401978 280.698090,270.063934   C290.316772,269.903992 300.091095,269.545074 309.493744,267.722473   C339.503998,261.905426 359.980896,244.829773 368.476044,214.845718   C372.809174,199.551758 373.115692,183.898666 370.848694,168.275085   C367.167084,142.901901 355.055389,123.298981 331.005035,112.367104   C318.213898,106.552994 304.616028,104.128113 290.693420,104.073982   C242.704376,103.887405 194.714340,103.953552 146.724670,103.945778   C145.463181,103.945580 144.201645,104.201797 142.979889,104.334129   C142.979889,111.053917 142.979889,117.415604 142.979889,124.224152   C153.903030,124.224152 164.342636,124.224152 175.492096,124.224152   C175.492096,149.955093 175.492096,175.227402 175.491806,201.499756  z"
   id="path1" />




<path
   fill="#F7F5F2"
   opacity="1.000000"
   stroke="none"
   d=" M175.491943,200.999741   C175.492096,175.227402 175.492096,149.955093 175.492096,124.224152   C164.342636,124.224152 153.903030,124.224152 142.979889,124.224152   C142.979889,117.415604 142.979889,111.053917 142.979889,104.334129   C144.201645,104.201797 145.463181,103.945580 146.724670,103.945778   C194.714340,103.953552 242.704376,103.887405 290.693420,104.073982   C304.616028,104.128113 318.213898,106.552994 331.005035,112.367104   C355.055389,123.298981 367.167084,142.901901 370.848694,168.275085   C373.115692,183.898666 372.809174,199.551758 368.476044,214.845718   C359.980896,244.829773 339.503998,261.905426 309.493744,267.722473   C300.091095,269.545074 290.316772,269.903992 280.698090,270.063934   C260.374634,270.401978 240.041641,270.166962 219.712555,270.167053   C217.759125,270.167084 215.805710,270.167053 213.512848,270.167053   C213.512848,310.497040 213.512848,350.234985 213.512848,390.586243   C227.140503,390.586243 240.707306,390.586243 254.669846,390.586243   C254.669846,397.570435 254.669846,403.953522 254.669846,410.671326   C217.534119,410.671326 180.453339,410.671326 142.932037,410.671326   C142.932037,404.322083 142.932037,397.944305 142.932037,390.832886   C151.604858,390.832886 160.202225,390.836517 168.799591,390.831726   C175.477509,390.828033 175.489090,390.823364 175.489456,383.961121   C175.492752,323.140656 175.491623,262.320221 175.491943,200.999741  M213.162323,241.352753   C213.162323,243.612534 213.162323,245.872330 213.162323,248.115082   C214.545700,248.403107 215.181335,248.651245 215.816864,248.651031   C238.979141,248.643097 262.167847,249.296356 285.296692,248.402634   C311.367615,247.395218 328.535553,231.260818 330.843445,206.195099   C331.938080,194.306580 332.044952,182.175491 331.074188,170.278732   C328.767487,142.011139 310.505920,125.635239 282.215881,125.498535   C261.052185,125.396255 239.887604,125.468918 218.723450,125.493866   C216.972214,125.495934 215.221237,125.729111 213.162338,125.877022   C213.162338,164.429977 213.162338,202.410385 213.162323,241.352753  z"
   id="path6" />
<path
   fill="#C65B73"
   opacity="1.000000"
   stroke="none"
   d=" M213.162323,240.871765   C213.162338,202.410385 213.162338,164.429977 213.162338,125.877022   C215.221237,125.729111 216.972214,125.495934 218.723450,125.493866   C239.887604,125.468918 261.052185,125.396255 282.215881,125.498535   C310.505920,125.635239 328.767487,142.011139 331.074188,170.278732   C332.044952,182.175491 331.938080,194.306580 330.843445,206.195099   C328.535553,231.260818 311.367615,247.395218 285.296692,248.402634   C262.167847,249.296356 238.979141,248.643097 215.816864,248.651031   C215.181335,248.651245 214.545700,248.403107 213.162323,248.115082   C213.162323,245.872330 213.162323,243.612534 213.162323,240.871765  z"
   id="path7" />
</svg>
