<?xml version="1.0" encoding="UTF-8" standalone="no"?>
<svg
   version="1.1"
   id="Layer_1"
   x="0px"
   y="0px"
   width="100%"
   viewBox="0 0 1000 1000"
   enable-background="new 0 0 1000 1000"
   xml:space="preserve"
   sodipodi:docname="scroll_chevron.svg"
   inkscape:version="1.4.2 (ebf0e940, 2025-05-08)"
   xmlns:inkscape="http://www.inkscape.org/namespaces/inkscape"
   xmlns:sodipodi="http://sodipodi.sourceforge.net/DTD/sodipodi-0.dtd"
   xmlns="http://www.w3.org/2000/svg"
   xmlns:svg="http://www.w3.org/2000/svg"><defs
   id="defs3" /><sodipodi:namedview
   id="namedview3"
   pagecolor="#ffffff"
   bordercolor="#000000"
   borderopacity="0.25"
   inkscape:showpageshadow="2"
   inkscape:pageopacity="0.0"
   inkscape:pagecheckerboard="0"
   inkscape:deskcolor="#d1d1d1"
   inkscape:zoom="0.24264291"
   inkscape:cx="282.30786"
   inkscape:cy="546.06995"
   inkscape:window-width="896"
   inkscape:window-height="624"
   inkscape:window-x="0"
   inkscape:window-y="34"
   inkscape:window-maximized="0"
   inkscape:current-layer="Layer_1" />

<path
   fill="#0B283E"
   opacity="1.000000"
   stroke="none"
   d=" M444.261719,504.994232   C455.001099,510.782745 465.463043,516.558655 475.837799,522.487061   C483.484253,526.856506 491.085876,531.314026 498.564697,535.962036   C501.376831,537.709778 503.541840,537.493103 506.267609,535.786194   C521.618530,526.173401 537.063782,516.710754 552.490967,507.220001   C558.061096,503.793304 558.605591,504.009979 561.567444,510.860016   C555.074036,514.888794 548.514709,518.980469 541.933533,523.036682   C530.189514,530.274963 518.363708,537.384033 506.728210,544.792358   C503.772156,546.674438 501.471893,546.690552 498.557037,544.973267   C480.375671,534.261414 462.113312,523.687073 443.913727,513.005920   C439.787750,510.584442 439.859497,509.316711 444.261719,504.994232  z"
   id="path2" />
<path
   fill="#0B283E"
   opacity="1.000000"
   stroke="none"
   d=" M469.720581,470.216461   C479.581177,476.027466 489.219757,481.498474 498.685455,487.253815   C501.422241,488.917847 503.365356,488.565643 505.916656,486.970947   C521.148315,477.450500 536.476440,468.084351 551.786682,458.689941   C553.609253,457.571594 555.519287,456.595886 557.305908,455.600281   C562.491516,460.705048 562.411194,461.383850 556.847595,464.798157   C540.405640,474.888184 523.926880,484.920746 507.600098,495.194427   C503.956207,497.487366 500.953522,497.297882 497.450653,495.234680   C479.981293,484.944885 462.452393,474.756134 444.944641,464.531525   C444.369995,464.195923 443.444580,463.973450 443.287140,463.498047   C442.702789,461.733734 441.696991,459.719513 442.094208,458.105469   C442.795319,455.256775 445.005432,455.518494 447.194611,456.899567   C451.530060,459.634705 455.866211,462.372467 460.274292,464.987427   C463.263397,466.760559 466.375610,468.326202 469.720581,470.216461  z"
   id="path3" />
</svg>
